<?xml version="1.0" encoding="UTF-8" standalone="no"?>
<!DOCTYPE svg PUBLIC "-//W3C//DTD SVG 1.1//EN"
 "http://www.w3.org/Graphics/SVG/1.1/DTD/svg11.dtd">
<!-- Generated by graphviz version 2.40.1 (20161225.0304)
 -->
<!-- Title: classes_poser Pages: 1 -->
<svg width="919pt" height="776pt"
 viewBox="0.00 0.00 918.50 776.00" xmlns="http://www.w3.org/2000/svg" xmlns:xlink="http://www.w3.org/1999/xlink">
<g id="graph0" class="graph" transform="scale(1 1) rotate(0) translate(4 772)">
<title>classes_poser</title>
<polygon fill="#ffffff" stroke="transparent" points="-4,4 -4,-772 914.5,-772 914.5,4 -4,4"/>
<!-- 0 -->
<g id="node1" class="node">
<title>0</title>
<polygon fill="none" stroke="#000000" points="152,-352 152,-451 364,-451 364,-352 152,-352"/>
<text text-anchor="middle" x="258" y="-435.8" font-family="Times,serif" font-size="14.00" fill="#000000">_functools.functools.partial</text>
<polyline fill="none" stroke="#000000" points="152,-428 364,-428 "/>
<text text-anchor="start" x="160" y="-412.8" font-family="Times,serif" font-size="14.00" fill="#000000">args : tuple</text>
<text text-anchor="start" x="160" y="-397.8" font-family="Times,serif" font-size="14.00" fill="#000000">func</text>
<text text-anchor="start" x="160" y="-382.8" font-family="Times,serif" font-size="14.00" fill="#000000">keywords : dict</text>
<polyline fill="none" stroke="#000000" points="152,-375 364,-375 "/>
<text text-anchor="middle" x="258" y="-359.8" font-family="Times,serif" font-size="14.00" fill="#000000"> </text>
</g>
<!-- 3 -->
<g id="node4" class="node">
<title>3</title>
<polygon fill="none" stroke="#000000" points="283.5,-638.5 283.5,-767.5 438.5,-767.5 438.5,-638.5 283.5,-638.5"/>
<text text-anchor="middle" x="361" y="-752.3" font-family="Times,serif" font-size="14.00" fill="#000000">poser.Composition</text>
<polyline fill="none" stroke="#000000" points="283.5,-744.5 438.5,-744.5 "/>
<text text-anchor="start" x="291.5" y="-729.3" font-family="Times,serif" font-size="14.00" fill="#000000">args : tuple</text>
<text text-anchor="start" x="291.5" y="-714.3" font-family="Times,serif" font-size="14.00" fill="#000000">exceptions</text>
<text text-anchor="start" x="291.5" y="-699.3" font-family="Times,serif" font-size="14.00" fill="#000000">first : NoneType</text>
<text text-anchor="start" x="291.5" y="-684.3" font-family="Times,serif" font-size="14.00" fill="#000000">funcs</text>
<text text-anchor="start" x="291.5" y="-669.3" font-family="Times,serif" font-size="14.00" fill="#000000">kwargs : dict</text>
<polyline fill="none" stroke="#000000" points="283.5,-661.5 438.5,-661.5 "/>
<text text-anchor="start" x="291.5" y="-646.3" font-family="Times,serif" font-size="14.00" fill="#000000">partial(this, object)</text>
</g>
<!-- 0&#45;&gt;3 -->
<g id="edge11" class="edge">
<title>0&#45;&gt;3</title>
<path fill="none" stroke="#000000" d="M275.0084,-451.2866C291.3317,-499.0679 316.2108,-571.8938 335.0162,-626.9405"/>
<polygon fill="#000000" stroke="#000000" points="335.0521,-627.046 340.7771,-631.4307 338.9316,-638.4016 333.2066,-634.017 335.0521,-627.046"/>
<text text-anchor="middle" x="346.5" y="-608.8" font-family="Times,serif" font-size="14.00" fill="#00ff00">first</text>
</g>
<!-- 12 -->
<g id="node13" class="node">
<title>12</title>
<polygon fill="none" stroke="#000000" points="102,-661 102,-745 236,-745 236,-661 102,-661"/>
<text text-anchor="middle" x="169" y="-729.8" font-family="Times,serif" font-size="14.00" fill="#ff0000">poser.Ø</text>
<polyline fill="none" stroke="#000000" points="102,-722 236,-722 "/>
<text text-anchor="start" x="110" y="-706.8" font-family="Times,serif" font-size="14.00" fill="#ff0000">first : NoneType</text>
<text text-anchor="start" x="110" y="-691.8" font-family="Times,serif" font-size="14.00" fill="#ff0000">funcs</text>
<polyline fill="none" stroke="#000000" points="102,-684 236,-684 "/>
<text text-anchor="middle" x="169" y="-668.8" font-family="Times,serif" font-size="14.00" fill="#ff0000"> </text>
</g>
<!-- 0&#45;&gt;12 -->
<g id="edge12" class="edge">
<title>0&#45;&gt;12</title>
<path fill="none" stroke="#000000" d="M247.2038,-451.0448C237.0314,-495.6702 220.6039,-562.8406 202,-620 198.861,-629.6445 195.1718,-639.7788 191.4185,-649.523"/>
<polygon fill="#000000" stroke="#000000" points="191.4032,-649.5621 192.9303,-656.6097 187.0122,-660.7299 185.4851,-653.6823 191.4032,-649.5621"/>
<text text-anchor="middle" x="221.5" y="-608.8" font-family="Times,serif" font-size="14.00" fill="#00ff00">first</text>
</g>
<!-- 1 -->
<g id="node2" class="node">
<title>1</title>
<polygon fill="none" stroke="#000000" points="0,-352 0,-451 134,-451 134,-352 0,-352"/>
<text text-anchor="middle" x="67" y="-435.8" font-family="Times,serif" font-size="14.00" fill="#000000">functools.partial</text>
<polyline fill="none" stroke="#000000" points="0,-428 134,-428 "/>
<text text-anchor="start" x="8" y="-412.8" font-family="Times,serif" font-size="14.00" fill="#000000">args : tuple</text>
<text text-anchor="start" x="8" y="-397.8" font-family="Times,serif" font-size="14.00" fill="#000000">func</text>
<text text-anchor="start" x="8" y="-382.8" font-family="Times,serif" font-size="14.00" fill="#000000">keywords : dict</text>
<polyline fill="none" stroke="#000000" points="0,-375 134,-375 "/>
<text text-anchor="middle" x="67" y="-359.8" font-family="Times,serif" font-size="14.00" fill="#000000"> </text>
</g>
<!-- 1&#45;&gt;3 -->
<g id="edge13" class="edge">
<title>1&#45;&gt;3</title>
<path fill="none" stroke="#000000" d="M74.3532,-451.2507C84.9457,-503.1976 109.9367,-582.2541 167,-620 196.6734,-639.6282 211.8141,-625.1752 245,-638 254.0321,-641.4905 263.2186,-645.5822 272.2664,-649.9843"/>
<polygon fill="#000000" stroke="#000000" points="272.493,-650.0982 279.6504,-649.2196 283.2143,-655.4885 276.0569,-656.3671 272.493,-650.0982"/>
<text text-anchor="middle" x="182.5" y="-608.8" font-family="Times,serif" font-size="14.00" fill="#00ff00">first</text>
</g>
<!-- 1&#45;&gt;12 -->
<g id="edge14" class="edge">
<title>1&#45;&gt;12</title>
<path fill="none" stroke="#000000" d="M72.3348,-451.2515C78.4329,-496.6038 90.7352,-564.7498 114,-620 118.3353,-630.2957 123.9868,-640.6826 130.0136,-650.4586"/>
<polygon fill="#000000" stroke="#000000" points="130.1679,-650.6987 136.777,-653.5834 136.6562,-660.7935 130.0471,-657.9089 130.1679,-650.6987"/>
<text text-anchor="middle" x="129.5" y="-608.8" font-family="Times,serif" font-size="14.00" fill="#00ff00">first</text>
</g>
<!-- 2 -->
<g id="node3" class="node">
<title>2</title>
<polygon fill="none" stroke="#000000" points="470.5,-216.5 470.5,-586.5 647.5,-586.5 647.5,-216.5 470.5,-216.5"/>
<text text-anchor="middle" x="559" y="-571.3" font-family="Times,serif" font-size="14.00" fill="#000000">poser.Compose</text>
<polyline fill="none" stroke="#000000" points="470.5,-563.5 647.5,-563.5 "/>
<polyline fill="none" stroke="#000000" points="470.5,-539.5 647.5,-539.5 "/>
<text text-anchor="start" x="478.5" y="-524.3" font-family="Times,serif" font-size="14.00" fill="#000000">attrgetter(this)</text>
<text text-anchor="start" x="478.5" y="-509.3" font-family="Times,serif" font-size="14.00" fill="#000000">complement(x, object)</text>
<text text-anchor="start" x="478.5" y="-494.3" font-family="Times,serif" font-size="14.00" fill="#000000">condition(λ, object)</text>
<text text-anchor="start" x="478.5" y="-479.3" font-family="Times,serif" font-size="14.00" fill="#000000">do(λ, callable)</text>
<text text-anchor="start" x="478.5" y="-464.3" font-family="Times,serif" font-size="14.00" fill="#000000">excepts(x)</text>
<text text-anchor="start" x="478.5" y="-449.3" font-family="Times,serif" font-size="14.00" fill="#000000">filter(λ, callable, key)</text>
<text text-anchor="start" x="478.5" y="-434.3" font-family="Times,serif" font-size="14.00" fill="#000000">first(cls)</text>
<text text-anchor="start" x="478.5" y="-419.3" font-family="Times,serif" font-size="14.00" fill="#000000">flip(x, object)</text>
<text text-anchor="start" x="478.5" y="-404.3" font-family="Times,serif" font-size="14.00" fill="#000000">groupby(λ, callable)</text>
<text text-anchor="start" x="478.5" y="-389.3" font-family="Times,serif" font-size="14.00" fill="#000000">ifnot(λ, callable)</text>
<text text-anchor="start" x="478.5" y="-374.3" font-family="Times,serif" font-size="14.00" fill="#000000">ifthen(λ, callable)</text>
<text text-anchor="start" x="478.5" y="-359.3" font-family="Times,serif" font-size="14.00" fill="#000000">isinstance(λ, object)</text>
<text text-anchor="start" x="478.5" y="-344.3" font-family="Times,serif" font-size="14.00" fill="#000000">issubclass(λ, object)</text>
<text text-anchor="start" x="478.5" y="-329.3" font-family="Times,serif" font-size="14.00" fill="#000000">itemgetter(this)</text>
<text text-anchor="start" x="478.5" y="-314.3" font-family="Times,serif" font-size="14.00" fill="#000000">map(λ, callable, key)</text>
<text text-anchor="start" x="478.5" y="-299.3" font-family="Times,serif" font-size="14.00" fill="#000000">methodcaller(this)</text>
<text text-anchor="start" x="478.5" y="-284.3" font-family="Times,serif" font-size="14.00" fill="#000000">off()</text>
<text text-anchor="start" x="478.5" y="-269.3" font-family="Times,serif" font-size="14.00" fill="#000000">on()</text>
<text text-anchor="start" x="478.5" y="-254.3" font-family="Times,serif" font-size="14.00" fill="#000000">partial(x, object)</text>
<text text-anchor="start" x="478.5" y="-239.3" font-family="Times,serif" font-size="14.00" fill="#000000">reduce(λ, callable)</text>
<text text-anchor="start" x="478.5" y="-224.3" font-family="Times,serif" font-size="14.00" fill="#000000">skip(bool)</text>
</g>
<!-- 2&#45;&gt;3 -->
<g id="edge1" class="edge">
<title>2&#45;&gt;3</title>
<path fill="none" stroke="#000000" d="M470.459,-572.6947C467.3377,-577.5578 464.1819,-582.3365 461,-587 451.011,-601.6402 439.4442,-616.5208 427.7985,-630.5241"/>
<polygon fill="none" stroke="#000000" points="425.0937,-628.3025 421.3301,-638.2063 430.4484,-632.8111 425.0937,-628.3025"/>
</g>
<!-- 6 -->
<g id="node7" class="node">
<title>6</title>
<polygon fill="none" stroke="#000000" points="585,-668 585,-738 723,-738 723,-668 585,-668"/>
<text text-anchor="middle" x="654" y="-722.8" font-family="Times,serif" font-size="14.00" fill="#000000">poser.Extensions</text>
<polyline fill="none" stroke="#000000" points="585,-715 723,-715 "/>
<polyline fill="none" stroke="#000000" points="585,-691 723,-691 "/>
<text text-anchor="middle" x="654" y="-675.8" font-family="Times,serif" font-size="14.00" fill="#000000"> </text>
</g>
<!-- 2&#45;&gt;6 -->
<g id="edge2" class="edge">
<title>2&#45;&gt;6</title>
<path fill="none" stroke="#000000" d="M617.4064,-586.8635C625.7276,-613.2723 633.5767,-638.1829 639.8557,-658.1106"/>
<polygon fill="none" stroke="#000000" points="636.555,-659.2815 642.8985,-667.7674 643.2314,-657.1778 636.555,-659.2815"/>
</g>
<!-- 4 -->
<g id="node5" class="node">
<title>4</title>
<polygon fill="none" stroke="#000000" points="389,-109 389,-178 531,-178 531,-109 389,-109"/>
<text text-anchor="middle" x="460" y="-162.8" font-family="Times,serif" font-size="14.00" fill="#000000">poser.Conditional</text>
<polyline fill="none" stroke="#000000" points="389,-155 531,-155 "/>
<text text-anchor="start" x="397" y="-139.8" font-family="Times,serif" font-size="14.00" fill="#000000">predicate</text>
<polyline fill="none" stroke="#000000" points="389,-132 531,-132 "/>
<text text-anchor="middle" x="460" y="-116.8" font-family="Times,serif" font-size="14.00" fill="#000000"> </text>
</g>
<!-- 4&#45;&gt;2 -->
<g id="edge3" class="edge">
<title>4&#45;&gt;2</title>
<path fill="none" stroke="#000000" d="M473.2489,-178.0273C476.5293,-186.5765 480.28,-196.351 484.3381,-206.9266"/>
<polygon fill="none" stroke="#000000" points="481.129,-208.3334 487.9793,-216.4157 487.6644,-205.8256 481.129,-208.3334"/>
</g>
<!-- 5 -->
<g id="node6" class="node">
<title>5</title>
<polygon fill="none" stroke="#000000" points="652.5,-.5 652.5,-70.5 767.5,-70.5 767.5,-.5 652.5,-.5"/>
<text text-anchor="middle" x="710" y="-55.3" font-family="Times,serif" font-size="14.00" fill="#000000">poser.Explicit</text>
<polyline fill="none" stroke="#000000" points="652.5,-47.5 767.5,-47.5 "/>
<polyline fill="none" stroke="#000000" points="652.5,-23.5 767.5,-23.5 "/>
<text text-anchor="middle" x="710" y="-8.3" font-family="Times,serif" font-size="14.00" fill="#000000"> </text>
</g>
<!-- 7 -->
<g id="node8" class="node">
<title>7</title>
<polygon fill="none" stroke="#000000" points="301,-.5 301,-70.5 399,-70.5 399,-.5 301,-.5"/>
<text text-anchor="middle" x="350" y="-55.3" font-family="Times,serif" font-size="14.00" fill="#000000">poser.IfNot</text>
<polyline fill="none" stroke="#000000" points="301,-47.5 399,-47.5 "/>
<polyline fill="none" stroke="#000000" points="301,-23.5 399,-23.5 "/>
<text text-anchor="middle" x="350" y="-8.3" font-family="Times,serif" font-size="14.00" fill="#000000"> </text>
</g>
<!-- 7&#45;&gt;4 -->
<g id="edge4" class="edge">
<title>7&#45;&gt;4</title>
<path fill="none" stroke="#000000" d="M385.7138,-70.5645C395.908,-80.5733 407.1142,-91.5757 417.6632,-101.9329"/>
<polygon fill="none" stroke="#000000" points="415.2531,-104.4716 424.8408,-108.9801 420.1572,-99.4767 415.2531,-104.4716"/>
</g>
<!-- 8 -->
<g id="node9" class="node">
<title>8</title>
<polygon fill="none" stroke="#000000" points="417.5,-.5 417.5,-70.5 524.5,-70.5 524.5,-.5 417.5,-.5"/>
<text text-anchor="middle" x="471" y="-55.3" font-family="Times,serif" font-size="14.00" fill="#000000">poser.IfThen</text>
<polyline fill="none" stroke="#000000" points="417.5,-47.5 524.5,-47.5 "/>
<polyline fill="none" stroke="#000000" points="417.5,-23.5 524.5,-23.5 "/>
<text text-anchor="middle" x="471" y="-8.3" font-family="Times,serif" font-size="14.00" fill="#000000"> </text>
</g>
<!-- 8&#45;&gt;4 -->
<g id="edge5" class="edge">
<title>8&#45;&gt;4</title>
<path fill="none" stroke="#000000" d="M467.4286,-70.5645C466.5072,-79.6109 465.5032,-89.4691 464.5397,-98.9289"/>
<polygon fill="none" stroke="#000000" points="461.0473,-98.6769 463.5159,-108.9801 468.0113,-99.3862 461.0473,-98.6769"/>
</g>
<!-- 9 -->
<g id="node10" class="node">
<title>9</title>
<polygon fill="none" stroke="#000000" points="785.5,-.5 785.5,-70.5 910.5,-70.5 910.5,-.5 785.5,-.5"/>
<text text-anchor="middle" x="848" y="-55.3" font-family="Times,serif" font-size="14.00" fill="#000000">poser.ThisType</text>
<polyline fill="none" stroke="#000000" points="785.5,-47.5 910.5,-47.5 "/>
<polyline fill="none" stroke="#000000" points="785.5,-23.5 910.5,-23.5 "/>
<text text-anchor="middle" x="848" y="-8.3" font-family="Times,serif" font-size="14.00" fill="#000000"> </text>
</g>
<!-- 10 -->
<g id="node11" class="node">
<title>10</title>
<polygon fill="none" stroke="#000000" points="665.5,-367 665.5,-436 760.5,-436 760.5,-367 665.5,-367"/>
<text text-anchor="middle" x="713" y="-420.8" font-family="Times,serif" font-size="14.00" fill="#000000">poser.Type</text>
<polyline fill="none" stroke="#000000" points="665.5,-413 760.5,-413 "/>
<text text-anchor="start" x="673.5" y="-397.8" font-family="Times,serif" font-size="14.00" fill="#000000">partial</text>
<polyline fill="none" stroke="#000000" points="665.5,-390 760.5,-390 "/>
<text text-anchor="middle" x="713" y="-374.8" font-family="Times,serif" font-size="14.00" fill="#000000"> </text>
</g>
<!-- 10&#45;&gt;6 -->
<g id="edge6" class="edge">
<title>10&#45;&gt;6</title>
<path fill="none" stroke="#000000" d="M706.2319,-436.0859C695.5307,-490.7712 674.7031,-597.2037 662.8366,-657.8432"/>
<polygon fill="none" stroke="#000000" points="659.3565,-657.4027 660.8709,-667.8888 666.2262,-658.7471 659.3565,-657.4027"/>
</g>
<!-- 11 -->
<g id="node12" class="node">
<title>11</title>
<polygon fill="none" stroke="#000000" points="547,-.5 547,-70.5 635,-70.5 635,-.5 547,-.5"/>
<text text-anchor="middle" x="591" y="-55.3" font-family="Times,serif" font-size="14.00" fill="#000000">poser.star</text>
<polyline fill="none" stroke="#000000" points="547,-47.5 635,-47.5 "/>
<polyline fill="none" stroke="#000000" points="547,-23.5 635,-23.5 "/>
<text text-anchor="middle" x="591" y="-8.3" font-family="Times,serif" font-size="14.00" fill="#000000"> </text>
</g>
<!-- 11&#45;&gt;2 -->
<g id="edge7" class="edge">
<title>11&#45;&gt;2</title>
<path fill="none" stroke="#000000" d="M583.8502,-70.7798C581.6809,-82.5719 579.4822,-95.8138 578,-108 574.1448,-139.6958 571.0394,-173.4189 568.5475,-206.2877"/>
<polygon fill="none" stroke="#000000" points="565.0425,-206.2264 567.7936,-216.4578 572.0233,-206.7439 565.0425,-206.2264"/>
</g>
<!-- 14 -->
<g id="node15" class="node">
<title>14</title>
<polygon fill="none" stroke="#000000" points="587,-108.5 587,-178.5 655,-178.5 655,-108.5 587,-108.5"/>
<text text-anchor="middle" x="621" y="-163.3" font-family="Times,serif" font-size="14.00" fill="#000000">poser.λ</text>
<polyline fill="none" stroke="#000000" points="587,-155.5 655,-155.5 "/>
<polyline fill="none" stroke="#000000" points="587,-131.5 655,-131.5 "/>
<text text-anchor="middle" x="621" y="-116.3" font-family="Times,serif" font-size="14.00" fill="#000000"> </text>
</g>
<!-- 11&#45;&gt;14 -->
<g id="edge8" class="edge">
<title>11&#45;&gt;14</title>
<path fill="none" stroke="#000000" d="M600.7401,-70.5645C603.2028,-79.43 605.882,-89.0751 608.4613,-98.3608"/>
<polygon fill="none" stroke="#000000" points="605.1572,-99.5434 611.2061,-108.2419 611.9019,-97.6699 605.1572,-99.5434"/>
</g>
<!-- 13 -->
<g id="node14" class="node">
<title>13</title>
<polygon fill="none" stroke="#000000" points="382,-366.5 382,-436.5 452,-436.5 452,-366.5 382,-366.5"/>
<text text-anchor="middle" x="417" y="-421.3" font-family="Times,serif" font-size="14.00" fill="#000000">poser.Λ</text>
<polyline fill="none" stroke="#000000" points="382,-413.5 452,-413.5 "/>
<polyline fill="none" stroke="#000000" points="382,-389.5 452,-389.5 "/>
<text text-anchor="middle" x="417" y="-374.3" font-family="Times,serif" font-size="14.00" fill="#000000"> </text>
</g>
<!-- 13&#45;&gt;3 -->
<g id="edge9" class="edge">
<title>13&#45;&gt;3</title>
<path fill="none" stroke="#000000" d="M410.4665,-436.676C401.7891,-483.3945 386.2374,-567.1237 374.8818,-628.2616"/>
<polygon fill="none" stroke="#000000" points="371.4112,-627.781 373.0262,-638.252 378.2935,-629.0593 371.4112,-627.781"/>
</g>
<!-- 14&#45;&gt;2 -->
<g id="edge10" class="edge">
<title>14&#45;&gt;2</title>
<path fill="none" stroke="#000000" d="M612.5739,-178.5635C610.5792,-186.8641 608.3121,-196.2979 605.8644,-206.4835"/>
<polygon fill="none" stroke="#000000" points="602.3989,-205.9258 603.4653,-216.4668 609.2051,-207.5615 602.3989,-205.9258"/>
</g>
</g>
</svg>
